<?xml version="1.0" standalone="no"?>
<!DOCTYPE svg PUBLIC "-//W3C//DTD SVG 1.1//EN" "http://www.w3.org/Graphics/SVG/1.1/DTD/svg11.dtd">
<svg width="100%" height="100%" viewBox="0 0 150 60" version="1.1" xmlns="http://www.w3.org/2000/svg" xmlns:xlink="http://www.w3.org/1999/xlink" xml:space="preserve" style="fill-rule:evenodd;clip-rule:evenodd;stroke-linejoin:round;stroke-miterlimit:1.41421;">
    <g transform="matrix(0.0991069,0,0,0.0991069,-120.046,-70.7279)">
        <g transform="matrix(1.88826,0,0,1.88826,1162.11,453.318)">
            <path d="M156.37,227.904C151.285,227.904 148.374,230.682 148.374,235.52L148.374,247.305C143.283,245.501 137.619,244.747 134.636,244.747L95.102,244.747C90.042,244.747 87.129,247.516 87.129,252.343C87.129,257.18 90.042,259.94 95.102,259.94L134.636,259.94C138.23,259.94 141.333,260.562 144.146,262.458C147.006,264.373 148.374,266.746 148.374,269.63L148.374,279.279C144.372,279.279 83.803,279.279 83.803,279.279C76.063,279.279 69.239,281.598 63.536,286.16C57.349,290.992 54.182,297.217 54.182,304.575C54.182,311.895 57.325,318.081 63.554,323.014C69.314,327.498 76.122,329.781 83.803,329.781L134.636,329.781C139.688,329.781 142.596,326.994 142.596,322.175C142.596,317.332 139.688,314.568 134.636,314.568L83.803,314.568C80.317,314.568 77.221,313.618 74.383,311.66C71.531,309.694 70.122,307.386 70.122,304.575C70.122,301.674 71.519,299.328 74.353,297.407C77.191,295.436 80.268,294.486 83.803,294.486C83.803,294.486 144.372,294.486 148.374,294.486C148.374,298.174 148.374,322.246 148.374,322.246C148.374,327.066 151.212,329.78 156.297,329.78C161.368,329.78 164.328,327.066 164.328,322.246L164.328,274.554L164.328,269.63L164.328,252.987C164.328,251.027 164.328,246.25 164.328,242.184C164.328,238.574 164.328,235.52 164.328,235.52C164.328,230.682 161.44,227.904 156.37,227.904Z" style="fill:rgb(0,104,178);fill-rule:nonzero;"/>
        </g>
        <g transform="matrix(1.88826,0,0,1.88826,1162.11,453.318)">
            <path d="M251.802,262.697C254.637,264.662 256.023,267.003 256.023,269.857L256.023,304.683C256.023,307.557 254.637,309.891 251.75,311.875C249.037,313.689 245.942,314.589 242.348,314.589L216.938,314.589C211.854,314.589 208.956,317.367 208.956,322.189C208.956,327.025 211.854,329.781 216.938,329.781L242.348,329.781C249.816,329.781 256.522,327.585 262.279,323.242C268.709,318.453 271.971,312.221 271.971,304.683L271.971,269.857C271.971,262.561 268.81,256.376 262.573,251.51C256.884,247.038 250.075,244.747 242.348,244.747L180.228,244.747C175.164,244.747 172.26,247.519 172.26,252.349C172.26,257.181 175.164,259.955 180.228,259.955L242.348,259.955C245.942,259.955 249.037,260.851 251.802,262.697Z" style="fill:rgb(0,104,178);fill-rule:nonzero;"/>
        </g>
        <g transform="matrix(1.88826,0,0,1.88826,1162.11,453.318)">
            <path d="M365.882,259.955C369.501,259.955 372.646,260.851 375.438,262.697C378.262,264.662 379.649,267.003 379.649,269.857L379.649,322.189C379.649,327.025 382.57,329.781 387.631,329.781C392.698,329.781 395.595,327.025 395.595,322.189L395.595,269.857C395.595,262.561 392.456,256.376 386.208,251.5C380.462,247.038 373.611,244.747 365.882,244.747L358.083,244.747C354.73,244.747 349.567,245.986 343.899,247.766C335.478,250.393 300.249,262.649 300.249,262.649C300.249,262.649 300.249,252.623 300.249,251.795C300.249,247.775 297.245,244.747 293.405,244.747C288.34,244.747 285.455,247.519 285.455,252.349L285.455,322.189C285.455,327.025 288.34,329.781 293.405,329.781C298.485,329.781 301.395,327.025 301.395,322.189L301.395,289.963C301.395,281.803 305.431,277.641 312.341,274.001C319.071,270.454 353.107,259.955 356.661,259.955L365.882,259.955Z" style="fill:rgb(0,104,178);fill-rule:nonzero;"/>
        </g>
        <g transform="matrix(1.88826,0,0,1.88826,1162.11,453.318)">
            <path d="M418.602,323.032C424.293,327.514 431.107,329.781 438.829,329.781L489.629,329.781C497.184,329.781 503.931,327.585 509.657,323.242C516.108,318.467 519.359,312.221 519.359,304.683L519.359,290.096C519.359,281.682 516.527,274.869 510.979,269.77C515.436,265.484 519.359,258.411 519.359,253.189C519.359,247.97 519.359,244.726 519.359,244.726C519.359,239.904 516.471,237.125 511.392,237.125C506.293,237.125 503.424,239.904 503.424,244.726C503.424,244.726 503.424,248.334 503.424,250.477C503.424,253.851 501.822,256.748 499.879,258.947C497.85,261.229 495.506,262.347 492.759,262.347L425.16,262.347L425.16,252.349C425.16,247.519 422.238,244.747 417.19,244.747C412.1,244.747 409.182,247.519 409.182,252.349L409.182,304.683C409.182,312.019 412.37,318.178 418.602,323.032M492.467,277.462C495.631,277.462 498.221,278.779 500.396,281.471C502.437,284.028 503.409,286.863 503.409,290.096L503.409,304.683C503.409,307.557 502.019,309.891 499.157,311.875C496.391,313.689 493.28,314.589 489.629,314.589L438.829,314.589C435.269,314.589 432.203,313.672 429.372,311.77C426.543,309.854 425.16,307.536 425.16,304.683L425.16,277.462L492.467,277.462Z" style="fill:rgb(0,104,178);fill-rule:nonzero;"/>
        </g>
        <g transform="matrix(1.88826,0,0,1.88826,1162.11,453.318)">
            <path d="M293.503,335.443C285.405,335.443 285.424,342.708 285.424,344.5C285.424,344.5 285.424,393.198 285.424,404.283C275.414,396.932 222.006,347.401 216.04,342.311C210.074,337.22 206.525,335.443 200.965,335.443C195.404,335.443 187.135,340.142 187.135,351.14L187.135,412.862C187.135,414.65 187.135,420.475 195.215,420.475C202.504,420.475 202.504,414.65 202.504,412.862C202.504,358.701 202.504,358.701 202.504,359.531C202.504,358.227 202.504,353.892 202.504,352.996C212.502,360.332 261.805,407.075 269.157,413.416C276.509,419.757 281.292,420.804 287.731,420.771C294.169,420.739 301.572,416.091 301.572,405.655L301.572,344.5C301.572,342.708 301.553,335.443 293.503,335.443Z" style="fill:rgb(0,104,178);fill-rule:nonzero;"/>
        </g>
        <g transform="matrix(1.88826,0,0,1.88826,1162.11,453.318)">
            <path d="M534.77,335.443L453.334,335.443L435.326,335.443L343.905,335.443C335.937,335.443 314.163,338.49 314.163,359.884C314.163,381.277 335.924,384.325 343.905,384.325L399.057,384.325C402.544,384.325 409.605,386.232 409.605,394.801C409.605,403.369 402.557,405.266 399.057,405.266L323.69,405.266C314.845,405.266 314.163,411.082 314.163,412.875C314.163,414.654 314.845,420.475 323.69,420.475L397.3,420.475C409.086,420.475 424.963,415.477 424.963,394.801C424.963,374.123 405.239,369.125 397.3,369.125L341.972,369.125C338.541,369.125 329.574,367.817 329.574,359.882C329.574,351.948 338.528,350.652 341.972,350.652L477.144,350.652L477.144,412.875C477.144,414.654 477.122,420.475 484.802,420.475C492.481,420.475 492.502,414.654 492.502,412.875C492.502,412.875 492.502,357.115 492.502,350.652C498.541,350.652 534.77,350.652 534.77,350.652C543.614,350.652 544.29,344.832 544.29,343.045C544.29,341.265 543.614,335.443 534.77,335.443Z" style="fill:rgb(0,104,178);fill-rule:nonzero;"/>
        </g>
        <g transform="matrix(1.88826,0,0,1.88826,1162.11,453.318)">
            <path d="M634.183,335.443L560.801,335.443C553.429,335.443 551.272,339.196 551.272,345.899L551.272,412.875C551.272,418.237 553.429,420.475 560.801,420.475L634.183,420.475C662.929,420.475 669.413,403.244 669.413,396.895L669.413,361.908C669.413,355.676 663.409,335.443 634.183,335.443M654.055,369.127C654.055,375.121 654.055,387.521 654.055,391.357C654.055,399.532 647.371,405.266 634.183,405.266C622.441,405.266 566.631,405.266 566.631,405.266L566.631,350.652L634.183,350.652C646.892,350.652 654.055,357.352 654.055,369.127Z" style="fill:rgb(0,104,178);fill-rule:nonzero;"/>
        </g>
        <g transform="matrix(1.88826,0,0,1.88826,1162.11,453.318)">
            <path d="M767.692,335.443L710.153,335.443C696.078,335.443 680.748,345.928 680.748,362.086L680.748,412.862C680.748,414.65 680.748,420.475 688.83,420.475C696.12,420.475 696.078,414.65 696.078,412.862L696.078,405.312L781.392,405.312L781.392,412.862C781.392,414.65 781.392,420.475 789.471,420.475C796.763,420.475 796.763,414.65 796.763,412.862L796.763,362.086C796.537,345.418 781.271,335.443 767.692,335.443M781.392,391.291L696.078,391.291C696.078,391.291 696.078,377.045 696.078,365.789C696.078,354.532 706.123,350.592 711.903,350.592L765.12,350.592C770.661,350.592 781.392,353.826 781.392,365.789C781.392,375.403 781.392,391.291 781.392,391.291Z" style="fill:rgb(0,104,178);fill-rule:nonzero;"/>
        </g>
        <g transform="matrix(1.88826,0,0,1.88826,1162.11,453.318)">
            <path d="M538.692,212.932C538.38,214.051 538.231,215.18 538.231,216.271C538.231,221.484 541.638,226.285 546.899,227.809C546.899,227.809 590.396,240.383 603.429,244.148C603.429,257.594 603.429,301.113 603.429,301.113C603.429,307.729 608.806,313.105 615.422,313.105C622.057,313.105 627.434,307.729 627.434,301.113L627.434,235.127C627.434,229.777 623.891,225.076 618.766,223.594L553.563,204.748C547.196,202.893 540.54,206.568 538.692,212.932Z" style="fill:rgb(211,211,212);fill-rule:nonzero;"/>
        </g>
        <g transform="matrix(1.88826,0,0,1.88826,1162.11,453.318)">
            <path d="M547.706,206.939C547.388,208.049 547.229,209.174 547.229,210.277C547.229,215.479 550.651,220.287 555.897,221.805C555.897,221.805 599.388,234.381 612.426,238.145C612.426,251.594 612.426,295.104 612.426,295.104C612.426,301.73 617.809,307.104 624.428,307.104C631.055,307.104 636.449,301.73 636.449,295.104L636.449,229.123C636.449,223.781 632.889,219.07 627.75,217.582L562.571,198.74C556.208,196.895 549.563,200.568 547.706,206.939Z" style="fill:rgb(64,142,197);fill-rule:nonzero;"/>
        </g>
        <g transform="matrix(1.88826,0,0,1.88826,1162.11,453.318)">
            <path d="M547.706,206.939C547.388,208.049 547.229,209.174 547.229,210.277C547.229,215.479 550.651,220.287 555.897,221.805C555.897,221.805 599.388,234.381 612.426,238.145C612.426,251.594 612.426,295.104 612.426,295.104C612.426,301.73 617.809,307.104 624.428,307.104L624.428,238.156C624.428,232.807 624.428,228.551 615.023,226.135L547.706,206.939Z" style="fill:rgb(0,104,178);fill-rule:nonzero;"/>
        </g>
        <g transform="matrix(1.88826,0,0,1.88826,1162.11,453.318)">
            <path d="M597.737,188.485C597.538,189.165 597.448,189.848 597.448,190.52C597.448,193.686 599.538,196.624 602.731,197.536C602.731,197.536 641.826,208.846 650.396,211.317C650.396,220.178 650.396,259.411 650.396,259.411C650.396,263.448 653.682,266.721 657.709,266.721C661.723,266.721 665.029,263.448 665.029,259.411L665.029,205.831C665.029,202.573 662.865,199.708 659.738,198.801L606.792,183.497C602.911,182.374 598.864,184.604 597.737,188.485Z" style="fill:rgb(211,211,212);fill-rule:nonzero;"/>
        </g>
        <g transform="matrix(1.88826,0,0,1.88826,1162.11,453.318)">
            <path d="M605.042,183.61C604.862,184.286 604.753,184.973 604.753,185.651C604.753,188.825 606.843,191.739 610.037,192.661C610.037,192.661 649.141,203.975 657.709,206.438C657.709,215.303 657.709,254.536 657.709,254.536C657.709,258.577 660.979,261.84 665.029,261.84C669.068,261.84 672.33,258.577 672.33,254.536L672.33,200.956C672.33,197.696 670.174,194.834 667.055,193.924L614.1,178.624C610.217,177.499 606.177,179.733 605.042,183.61Z" style="fill:rgb(128,180,217);fill-rule:nonzero;"/>
        </g>
        <g transform="matrix(1.88826,0,0,1.88826,1162.11,453.318)">
            <path d="M605.042,183.61C604.862,184.286 604.753,184.973 604.753,185.651C604.753,188.825 606.843,191.739 610.037,192.661C610.037,192.661 649.141,203.975 657.709,206.438C657.709,215.303 657.709,254.536 657.709,254.536C657.709,258.577 660.979,261.84 665.029,261.84L665.029,205.897C665.029,202.637 665.029,200.563 658.838,198.895L605.042,183.61Z" style="fill:rgb(64,142,197);fill-rule:nonzero;"/>
        </g>
    </g>
</svg>
